<mxfile host="app.diagrams.net" agent="Mozilla/5.0 (Windows NT 10.0; Win64; x64) AppleWebKit/537.36 (KHTML, like Gecko) Chrome/134.0.0.0 Safari/537.36" version="26.1.1">
  <diagram name="Página-1" id="-OO6vksWuHKH7I4W7_uY">
    <mxGraphModel dx="880" dy="444" grid="1" gridSize="10" guides="1" tooltips="1" connect="1" arrows="1" fold="1" page="1" pageScale="1" pageWidth="827" pageHeight="1169" math="0" shadow="0">
      <root>
        <mxCell id="0" />
        <mxCell id="1" parent="0" />
        <mxCell id="kGP6_LxnJmwe73gH4mtA-7" value="Sistema de gerenciamento do Hotel" style="swimlane;whiteSpace=wrap;html=1;" vertex="1" parent="1">
          <mxGeometry x="113" y="30" width="601" height="400" as="geometry" />
        </mxCell>
        <mxCell id="kGP6_LxnJmwe73gH4mtA-8" value="Usuário" style="swimlane;startSize=20;horizontal=1;containerType=tree;newEdgeStyle={&quot;edgeStyle&quot;:&quot;elbowEdgeStyle&quot;,&quot;startArrow&quot;:&quot;none&quot;,&quot;endArrow&quot;:&quot;none&quot;};" vertex="1" parent="kGP6_LxnJmwe73gH4mtA-7">
          <mxGeometry x="17" y="40" width="280" height="220" as="geometry" />
        </mxCell>
        <mxCell id="kGP6_LxnJmwe73gH4mtA-9" value="" style="edgeStyle=elbowEdgeStyle;elbow=vertical;sourcePerimeterSpacing=0;targetPerimeterSpacing=0;startArrow=none;endArrow=none;rounded=0;curved=0;" edge="1" parent="kGP6_LxnJmwe73gH4mtA-8" source="kGP6_LxnJmwe73gH4mtA-11" target="kGP6_LxnJmwe73gH4mtA-12">
          <mxGeometry relative="1" as="geometry" />
        </mxCell>
        <mxCell id="kGP6_LxnJmwe73gH4mtA-10" value="" style="edgeStyle=elbowEdgeStyle;elbow=vertical;sourcePerimeterSpacing=0;targetPerimeterSpacing=0;startArrow=none;endArrow=none;rounded=0;curved=0;" edge="1" parent="kGP6_LxnJmwe73gH4mtA-8" source="kGP6_LxnJmwe73gH4mtA-11" target="kGP6_LxnJmwe73gH4mtA-13">
          <mxGeometry relative="1" as="geometry" />
        </mxCell>
        <UserObject label="Organization" treeRoot="1" id="kGP6_LxnJmwe73gH4mtA-11">
          <mxCell style="whiteSpace=wrap;html=1;align=center;treeFolding=1;treeMoving=1;newEdgeStyle={&quot;edgeStyle&quot;:&quot;elbowEdgeStyle&quot;,&quot;startArrow&quot;:&quot;none&quot;,&quot;endArrow&quot;:&quot;none&quot;};" vertex="1" parent="kGP6_LxnJmwe73gH4mtA-8">
            <mxGeometry x="80" y="40" width="120" height="60" as="geometry" />
          </mxCell>
        </UserObject>
        <mxCell id="kGP6_LxnJmwe73gH4mtA-12" value="Division" style="whiteSpace=wrap;html=1;align=center;verticalAlign=middle;treeFolding=1;treeMoving=1;newEdgeStyle={&quot;edgeStyle&quot;:&quot;elbowEdgeStyle&quot;,&quot;startArrow&quot;:&quot;none&quot;,&quot;endArrow&quot;:&quot;none&quot;};" vertex="1" parent="kGP6_LxnJmwe73gH4mtA-8">
          <mxGeometry x="20" y="140" width="100" height="60" as="geometry" />
        </mxCell>
        <mxCell id="kGP6_LxnJmwe73gH4mtA-13" value="Division" style="whiteSpace=wrap;html=1;align=center;verticalAlign=middle;treeFolding=1;treeMoving=1;newEdgeStyle={&quot;edgeStyle&quot;:&quot;elbowEdgeStyle&quot;,&quot;startArrow&quot;:&quot;none&quot;,&quot;endArrow&quot;:&quot;none&quot;};" vertex="1" parent="kGP6_LxnJmwe73gH4mtA-8">
          <mxGeometry x="160" y="140" width="100" height="60" as="geometry" />
        </mxCell>
      </root>
    </mxGraphModel>
  </diagram>
</mxfile>
